<mxfile host="app.diagrams.net" agent="Mozilla/5.0 (Windows NT 10.0; Win64; x64) AppleWebKit/537.36 (KHTML, like Gecko) Chrome/136.0.0.0 Safari/537.36" version="27.0.5">
  <diagram name="Page-1" id="_ILfyKcqOxELheL75NPO">
    <mxGraphModel dx="1678" dy="825" grid="1" gridSize="10" guides="1" tooltips="1" connect="1" arrows="1" fold="1" page="0" pageScale="1" pageWidth="850" pageHeight="1100" math="0" shadow="0">
      <root>
        <mxCell id="0" />
        <mxCell id="1" parent="0" />
        <mxCell id="80_PB4CxMYnDmtxygb_t-1" value="Marketplace" style="ellipse;whiteSpace=wrap;html=1;" parent="1" vertex="1">
          <mxGeometry x="20" y="10" width="90" height="50" as="geometry" />
        </mxCell>
        <mxCell id="80_PB4CxMYnDmtxygb_t-2" value="Manager&lt;div&gt;&lt;br&gt;&lt;/div&gt;" style="shape=umlActor;verticalLabelPosition=bottom;verticalAlign=top;html=1;outlineConnect=0;" parent="1" vertex="1">
          <mxGeometry x="50" y="80" width="20" height="40" as="geometry" />
        </mxCell>
        <mxCell id="80_PB4CxMYnDmtxygb_t-5" value="" style="shape=umlBoundary;whiteSpace=wrap;html=1;" parent="1" vertex="1">
          <mxGeometry x="220" y="70" width="70" height="50" as="geometry" />
        </mxCell>
        <mxCell id="80_PB4CxMYnDmtxygb_t-7" value="" style="endArrow=none;html=1;rounded=0;entryX=-0.029;entryY=0.496;entryDx=0;entryDy=0;entryPerimeter=0;" parent="1" source="80_PB4CxMYnDmtxygb_t-8" target="80_PB4CxMYnDmtxygb_t-5" edge="1">
          <mxGeometry width="50" height="50" relative="1" as="geometry">
            <mxPoint x="90" y="95" as="sourcePoint" />
            <mxPoint x="220" y="96" as="targetPoint" />
          </mxGeometry>
        </mxCell>
        <mxCell id="80_PB4CxMYnDmtxygb_t-9" value="Manager Home Screen" style="text;html=1;align=center;verticalAlign=middle;resizable=0;points=[];autosize=1;strokeColor=none;fillColor=none;" parent="1" vertex="1">
          <mxGeometry x="180" y="45" width="150" height="30" as="geometry" />
        </mxCell>
        <mxCell id="80_PB4CxMYnDmtxygb_t-10" value="Display" style="ellipse;shape=umlControl;whiteSpace=wrap;html=1;" parent="1" vertex="1">
          <mxGeometry x="410" y="60" width="60" height="60" as="geometry" />
        </mxCell>
        <mxCell id="80_PB4CxMYnDmtxygb_t-14" value="" style="shape=umlBoundary;whiteSpace=wrap;html=1;" parent="1" vertex="1">
          <mxGeometry x="220" y="190" width="70" height="50" as="geometry" />
        </mxCell>
        <mxCell id="80_PB4CxMYnDmtxygb_t-15" value="&amp;nbsp;Manager&amp;nbsp;&lt;span style=&quot;background-color: transparent; color: light-dark(rgb(0, 0, 0), rgb(255, 255, 255));&quot;&gt;Marketplace screen&lt;/span&gt;" style="text;html=1;align=center;verticalAlign=middle;resizable=0;points=[];autosize=1;strokeColor=none;fillColor=none;" parent="1" vertex="1">
          <mxGeometry x="180" y="160" width="180" height="30" as="geometry" />
        </mxCell>
        <mxCell id="80_PB4CxMYnDmtxygb_t-18" value="" style="endArrow=none;html=1;rounded=0;entryX=-0.017;entryY=0.464;entryDx=0;entryDy=0;entryPerimeter=0;" parent="1" source="80_PB4CxMYnDmtxygb_t-19" target="80_PB4CxMYnDmtxygb_t-14" edge="1">
          <mxGeometry width="50" height="50" relative="1" as="geometry">
            <mxPoint x="90" y="100" as="sourcePoint" />
            <mxPoint x="450" y="250" as="targetPoint" />
          </mxGeometry>
        </mxCell>
        <mxCell id="80_PB4CxMYnDmtxygb_t-20" value="Task&amp;nbsp;&lt;div&gt;List&lt;/div&gt;" style="ellipse;shape=umlEntity;whiteSpace=wrap;html=1;" parent="1" vertex="1">
          <mxGeometry x="610" y="55" width="80" height="75" as="geometry" />
        </mxCell>
        <mxCell id="80_PB4CxMYnDmtxygb_t-23" style="edgeStyle=orthogonalEdgeStyle;rounded=0;orthogonalLoop=1;jettySize=auto;html=1;entryX=0.5;entryY=1;entryDx=0;entryDy=0;endArrow=none;startFill=0;endFill=1;" parent="1" source="80_PB4CxMYnDmtxygb_t-21" target="80_PB4CxMYnDmtxygb_t-20" edge="1">
          <mxGeometry relative="1" as="geometry" />
        </mxCell>
        <mxCell id="80_PB4CxMYnDmtxygb_t-21" value="Load" style="ellipse;shape=umlControl;whiteSpace=wrap;html=1;" parent="1" vertex="1">
          <mxGeometry x="570" y="240" width="65" height="70" as="geometry" />
        </mxCell>
        <mxCell id="80_PB4CxMYnDmtxygb_t-24" value="DIsplay" style="ellipse;shape=umlControl;whiteSpace=wrap;html=1;" parent="1" vertex="1">
          <mxGeometry x="350" y="350" width="60" height="60" as="geometry" />
        </mxCell>
        <mxCell id="80_PB4CxMYnDmtxygb_t-25" style="edgeStyle=orthogonalEdgeStyle;rounded=0;orthogonalLoop=1;jettySize=auto;html=1;entryX=1.013;entryY=0.587;entryDx=0;entryDy=0;entryPerimeter=0;endArrow=none;startFill=0;" parent="1" source="80_PB4CxMYnDmtxygb_t-21" target="80_PB4CxMYnDmtxygb_t-24" edge="1">
          <mxGeometry relative="1" as="geometry">
            <Array as="points">
              <mxPoint x="603" y="385" />
            </Array>
          </mxGeometry>
        </mxCell>
        <mxCell id="80_PB4CxMYnDmtxygb_t-26" value="" style="shape=umlBoundary;whiteSpace=wrap;html=1;" parent="1" vertex="1">
          <mxGeometry x="200" y="355" width="70" height="50" as="geometry" />
        </mxCell>
        <mxCell id="80_PB4CxMYnDmtxygb_t-27" value="Manager Suggestions&lt;div&gt;Screen&lt;/div&gt;" style="text;html=1;align=center;verticalAlign=middle;resizable=0;points=[];autosize=1;strokeColor=none;fillColor=none;" parent="1" vertex="1">
          <mxGeometry x="180" y="315" width="140" height="40" as="geometry" />
        </mxCell>
        <mxCell id="80_PB4CxMYnDmtxygb_t-28" style="edgeStyle=orthogonalEdgeStyle;rounded=0;orthogonalLoop=1;jettySize=auto;html=1;entryX=0.989;entryY=0.496;entryDx=0;entryDy=0;entryPerimeter=0;endArrow=none;startFill=0;" parent="1" source="80_PB4CxMYnDmtxygb_t-24" target="80_PB4CxMYnDmtxygb_t-26" edge="1">
          <mxGeometry relative="1" as="geometry" />
        </mxCell>
        <mxCell id="80_PB4CxMYnDmtxygb_t-29" value="" style="endArrow=none;html=1;rounded=0;entryX=0;entryY=0.5;entryDx=0;entryDy=0;entryPerimeter=0;" parent="1" source="80_PB4CxMYnDmtxygb_t-30" target="80_PB4CxMYnDmtxygb_t-26" edge="1">
          <mxGeometry width="50" height="50" relative="1" as="geometry">
            <mxPoint x="90" y="100" as="sourcePoint" />
            <mxPoint x="450" y="250" as="targetPoint" />
          </mxGeometry>
        </mxCell>
        <mxCell id="80_PB4CxMYnDmtxygb_t-31" value="Load" style="ellipse;shape=umlControl;whiteSpace=wrap;html=1;" parent="1" vertex="1">
          <mxGeometry x="425" y="440" width="60" height="60" as="geometry" />
        </mxCell>
        <mxCell id="80_PB4CxMYnDmtxygb_t-34" style="edgeStyle=orthogonalEdgeStyle;rounded=0;orthogonalLoop=1;jettySize=auto;html=1;entryX=0.017;entryY=0.673;entryDx=0;entryDy=0;entryPerimeter=0;endArrow=none;startFill=0;" parent="1" source="80_PB4CxMYnDmtxygb_t-26" target="80_PB4CxMYnDmtxygb_t-31" edge="1">
          <mxGeometry relative="1" as="geometry">
            <Array as="points">
              <mxPoint x="255" y="480" />
            </Array>
          </mxGeometry>
        </mxCell>
        <mxCell id="80_PB4CxMYnDmtxygb_t-35" style="edgeStyle=orthogonalEdgeStyle;rounded=0;orthogonalLoop=1;jettySize=auto;html=1;entryX=0.68;entryY=0.979;entryDx=0;entryDy=0;entryPerimeter=0;endArrow=none;startFill=0;endFill=1;" parent="1" source="80_PB4CxMYnDmtxygb_t-31" target="80_PB4CxMYnDmtxygb_t-20" edge="1">
          <mxGeometry relative="1" as="geometry">
            <mxPoint x="664" y="140" as="targetPoint" />
          </mxGeometry>
        </mxCell>
        <mxCell id="80_PB4CxMYnDmtxygb_t-47" value="" style="endArrow=none;html=1;rounded=0;entryX=0;entryY=0.5;entryDx=0;entryDy=0;entryPerimeter=0;" parent="1" target="80_PB4CxMYnDmtxygb_t-30" edge="1">
          <mxGeometry width="50" height="50" relative="1" as="geometry">
            <mxPoint x="90" y="100" as="sourcePoint" />
            <mxPoint x="220" y="355" as="targetPoint" />
          </mxGeometry>
        </mxCell>
        <mxCell id="80_PB4CxMYnDmtxygb_t-30" value="Choose suggestion" style="text;html=1;align=center;verticalAlign=middle;resizable=0;points=[];autosize=1;strokeColor=none;fillColor=none;rotation=60;" parent="1" vertex="1">
          <mxGeometry x="95" y="250" width="130" height="30" as="geometry" />
        </mxCell>
        <mxCell id="80_PB4CxMYnDmtxygb_t-48" value="" style="endArrow=none;html=1;rounded=0;entryX=-0.017;entryY=0.464;entryDx=0;entryDy=0;entryPerimeter=0;" parent="1" target="80_PB4CxMYnDmtxygb_t-19" edge="1">
          <mxGeometry width="50" height="50" relative="1" as="geometry">
            <mxPoint x="90" y="100" as="sourcePoint" />
            <mxPoint x="219" y="213" as="targetPoint" />
          </mxGeometry>
        </mxCell>
        <mxCell id="80_PB4CxMYnDmtxygb_t-19" value="Enter type of task&amp;nbsp;" style="text;html=1;align=center;verticalAlign=middle;resizable=0;points=[];autosize=1;strokeColor=none;fillColor=none;rotation=45;" parent="1" vertex="1">
          <mxGeometry x="95" y="145" width="120" height="30" as="geometry" />
        </mxCell>
        <mxCell id="80_PB4CxMYnDmtxygb_t-49" value="" style="endArrow=none;html=1;rounded=0;entryX=-0.029;entryY=0.496;entryDx=0;entryDy=0;entryPerimeter=0;" parent="1" target="80_PB4CxMYnDmtxygb_t-8" edge="1">
          <mxGeometry width="50" height="50" relative="1" as="geometry">
            <mxPoint x="90" y="95" as="sourcePoint" />
            <mxPoint x="218" y="95" as="targetPoint" />
          </mxGeometry>
        </mxCell>
        <mxCell id="80_PB4CxMYnDmtxygb_t-8" value="&lt;div&gt;Select&lt;/div&gt;&lt;div&gt;&quot;Marketplace&quot;&lt;/div&gt;" style="text;html=1;align=center;verticalAlign=middle;resizable=0;points=[];autosize=1;strokeColor=none;fillColor=none;" parent="1" vertex="1">
          <mxGeometry x="110" y="75" width="100" height="40" as="geometry" />
        </mxCell>
        <mxCell id="80_PB4CxMYnDmtxygb_t-50" value="Add to&amp;nbsp;&lt;div&gt;Favorites&lt;/div&gt;" style="ellipse;shape=umlControl;whiteSpace=wrap;html=1;" parent="1" vertex="1">
          <mxGeometry x="330" y="660" width="80" height="60" as="geometry" />
        </mxCell>
        <mxCell id="80_PB4CxMYnDmtxygb_t-56" style="edgeStyle=orthogonalEdgeStyle;rounded=0;orthogonalLoop=1;jettySize=auto;html=1;entryX=1;entryY=0.5;entryDx=0;entryDy=0;endArrow=none;startFill=0;endFill=1;" parent="1" source="80_PB4CxMYnDmtxygb_t-52" target="80_PB4CxMYnDmtxygb_t-20" edge="1">
          <mxGeometry relative="1" as="geometry" />
        </mxCell>
        <mxCell id="80_PB4CxMYnDmtxygb_t-52" value="Update" style="ellipse;shape=umlControl;whiteSpace=wrap;html=1;" parent="1" vertex="1">
          <mxGeometry x="530" y="660" width="70" height="60" as="geometry" />
        </mxCell>
        <mxCell id="80_PB4CxMYnDmtxygb_t-53" style="edgeStyle=orthogonalEdgeStyle;rounded=0;orthogonalLoop=1;jettySize=auto;html=1;entryX=0;entryY=0.5;entryDx=0;entryDy=0;entryPerimeter=0;endArrow=none;startFill=0;" parent="1" source="80_PB4CxMYnDmtxygb_t-50" target="80_PB4CxMYnDmtxygb_t-52" edge="1">
          <mxGeometry relative="1" as="geometry" />
        </mxCell>
        <mxCell id="80_PB4CxMYnDmtxygb_t-54" value="&lt;div&gt;Yes&lt;/div&gt;" style="text;html=1;align=center;verticalAlign=middle;resizable=0;points=[];autosize=1;strokeColor=none;fillColor=none;" parent="1" vertex="1">
          <mxGeometry x="435" y="660" width="40" height="30" as="geometry" />
        </mxCell>
        <mxCell id="80_PB4CxMYnDmtxygb_t-64" value="Display&lt;div&gt;Favorites&lt;/div&gt;" style="ellipse;shape=umlControl;whiteSpace=wrap;html=1;" parent="1" vertex="1">
          <mxGeometry x="80" y="720" width="60" height="60" as="geometry" />
        </mxCell>
        <mxCell id="GnMMK_o7VepoRMVaLOqU-6" style="edgeStyle=orthogonalEdgeStyle;rounded=0;orthogonalLoop=1;jettySize=auto;html=1;entryX=0.681;entryY=0.947;entryDx=0;entryDy=0;entryPerimeter=0;endArrow=none;startFill=0;" parent="1" source="80_PB4CxMYnDmtxygb_t-50" target="80_PB4CxMYnDmtxygb_t-26" edge="1">
          <mxGeometry relative="1" as="geometry" />
        </mxCell>
        <mxCell id="GnMMK_o7VepoRMVaLOqU-8" value="Display suggestion chosen details" style="ellipse;shape=umlControl;whiteSpace=wrap;html=1;" parent="1" vertex="1">
          <mxGeometry x="330" y="520" width="100" height="90" as="geometry" />
        </mxCell>
        <mxCell id="GnMMK_o7VepoRMVaLOqU-9" style="edgeStyle=orthogonalEdgeStyle;rounded=0;orthogonalLoop=1;jettySize=auto;html=1;entryX=0.972;entryY=0.817;entryDx=0;entryDy=0;entryPerimeter=0;endArrow=none;startFill=0;" parent="1" source="80_PB4CxMYnDmtxygb_t-31" target="GnMMK_o7VepoRMVaLOqU-8" edge="1">
          <mxGeometry relative="1" as="geometry">
            <Array as="points">
              <mxPoint x="455" y="589" />
            </Array>
          </mxGeometry>
        </mxCell>
        <mxCell id="ReJIQodgd2hQbhPUq4SK-1" value="" style="endArrow=none;html=1;rounded=0;exitX=1.005;exitY=0.541;exitDx=0;exitDy=0;exitPerimeter=0;entryX=-0.014;entryY=0.618;entryDx=0;entryDy=0;entryPerimeter=0;endFill=1;startFill=0;" parent="1" source="80_PB4CxMYnDmtxygb_t-5" target="80_PB4CxMYnDmtxygb_t-10" edge="1">
          <mxGeometry width="50" height="50" relative="1" as="geometry">
            <mxPoint x="480" y="430" as="sourcePoint" />
            <mxPoint x="530" y="380" as="targetPoint" />
          </mxGeometry>
        </mxCell>
        <mxCell id="EsN9mS5PvwEEWZ0ZTwId-5" style="edgeStyle=orthogonalEdgeStyle;rounded=0;orthogonalLoop=1;jettySize=auto;html=1;entryX=0;entryY=0.5;entryDx=0;entryDy=0;" parent="1" source="EsN9mS5PvwEEWZ0ZTwId-1" target="80_PB4CxMYnDmtxygb_t-20" edge="1">
          <mxGeometry relative="1" as="geometry" />
        </mxCell>
        <mxCell id="EsN9mS5PvwEEWZ0ZTwId-1" value="Load" style="ellipse;shape=umlControl;whiteSpace=wrap;html=1;" parent="1" vertex="1">
          <mxGeometry x="405" y="180" width="65" height="70" as="geometry" />
        </mxCell>
        <mxCell id="EsN9mS5PvwEEWZ0ZTwId-2" style="edgeStyle=orthogonalEdgeStyle;rounded=0;orthogonalLoop=1;jettySize=auto;html=1;entryX=0.538;entryY=0.196;entryDx=0;entryDy=0;entryPerimeter=0;endArrow=none;startFill=0;" parent="1" source="80_PB4CxMYnDmtxygb_t-10" target="EsN9mS5PvwEEWZ0ZTwId-1" edge="1">
          <mxGeometry relative="1" as="geometry" />
        </mxCell>
        <mxCell id="EsN9mS5PvwEEWZ0ZTwId-3" style="edgeStyle=orthogonalEdgeStyle;rounded=0;orthogonalLoop=1;jettySize=auto;html=1;entryX=1.008;entryY=0.483;entryDx=0;entryDy=0;entryPerimeter=0;endArrow=none;startFill=0;" parent="1" source="EsN9mS5PvwEEWZ0ZTwId-1" target="80_PB4CxMYnDmtxygb_t-14" edge="1">
          <mxGeometry relative="1" as="geometry">
            <mxPoint x="290" y="216" as="targetPoint" />
          </mxGeometry>
        </mxCell>
        <mxCell id="EsN9mS5PvwEEWZ0ZTwId-4" style="edgeStyle=orthogonalEdgeStyle;rounded=0;orthogonalLoop=1;jettySize=auto;html=1;entryX=0;entryY=0.571;entryDx=0;entryDy=0;entryPerimeter=0;endArrow=none;startFill=0;" parent="1" source="80_PB4CxMYnDmtxygb_t-14" target="80_PB4CxMYnDmtxygb_t-21" edge="1">
          <mxGeometry relative="1" as="geometry">
            <Array as="points">
              <mxPoint x="255" y="280" />
            </Array>
          </mxGeometry>
        </mxCell>
        <mxCell id="h2z3qUaqmuM1Wb9WZzCl-1" style="edgeStyle=orthogonalEdgeStyle;rounded=0;orthogonalLoop=1;jettySize=auto;html=1;entryX=0.465;entryY=0.069;entryDx=0;entryDy=0;entryPerimeter=0;endArrow=none;startFill=0;" edge="1" parent="1" source="GnMMK_o7VepoRMVaLOqU-8" target="80_PB4CxMYnDmtxygb_t-64">
          <mxGeometry relative="1" as="geometry" />
        </mxCell>
      </root>
    </mxGraphModel>
  </diagram>
</mxfile>
